<svg width="63" height="63" viewBox="0 0 63 63" fill="none" xmlns="http://www.w3.org/2000/svg">
<path d="M1.64258 31.5264C1.64258 48.0306 15.0214 61.4094 31.5254 61.4094C48.0296 61.4094 61.4092 48.0302 61.4092 31.5264C61.4092 15.0224 48.0296 1.64355 31.5254 1.64355C15.0214 1.64355 1.64258 15.0224 1.64258 31.5264Z" fill="#0C0C4F" stroke="#EC796B" stroke-width="1.00308"/>
<path fill-rule="evenodd" clip-rule="evenodd" d="M18.0046 24.3034L18.7614 21.9652C18.9152 21.4897 19.2906 21.1196 19.7679 20.9737L22.1175 20.2511C22.4428 20.1518 22.4454 19.6929 22.1228 19.5883L19.7837 18.8315C19.309 18.6777 18.939 18.3023 18.7922 17.825L18.0705 15.4754C17.9712 15.151 17.5123 15.1475 17.4077 15.471L16.6509 17.8092C16.497 18.2838 16.1217 18.6539 15.6444 18.8007L13.2947 19.5224C12.9695 19.6226 12.966 20.0806 13.2895 20.1852L15.6285 20.942C16.1032 21.0959 16.4733 21.4721 16.6201 21.9494L17.3418 24.2981C17.4411 24.6234 17.9 24.6269 18.0046 24.3034Z" fill="#FAFAFA"/>
<path fill-rule="evenodd" clip-rule="evenodd" d="M55.1418 22.9427C54.1732 21.8595 52.6615 21.2497 51.1918 20.9996C49.7104 20.7594 48.1569 20.7817 46.6946 21.0415C43.7353 21.5421 41.047 22.7674 38.7022 24.279C37.4845 25.0208 36.4461 25.8792 35.3703 26.7534C34.852 27.1955 34.3794 27.6664 33.8872 28.1305L32.5424 29.4685C31.0811 30.996 29.6408 32.3872 28.2473 33.5403C26.8481 34.6882 25.5399 35.5599 24.2507 36.1688C22.9624 36.7807 21.5838 37.1406 19.787 37.1982C18.0059 37.261 15.8987 36.9395 13.6448 36.409C11.3787 35.8807 8.99903 35.1278 6.33984 34.4799C7.2677 37.054 8.66492 39.3287 10.4588 41.4083C12.2737 43.4516 14.54 45.3137 17.4514 46.5385C20.3207 47.7905 23.9265 48.2399 27.298 47.5619C30.6785 46.9111 33.645 45.347 36.0429 43.5377C38.4469 41.7102 40.3919 39.6284 42.0316 37.4641C42.4841 36.8661 42.7236 36.5314 43.0511 36.064L43.9566 34.723C44.5857 33.8935 45.1585 32.949 45.781 32.1271C47.0019 30.4059 48.2058 28.6866 49.6045 27.1026C50.3085 26.2992 51.0509 25.5307 51.9272 24.7922C52.3642 24.4318 52.8366 24.079 53.3597 23.7612C53.8906 23.4184 54.4514 23.1501 55.1418 22.9427Z" fill="#EC796B"/>
<path fill-rule="evenodd" clip-rule="evenodd" d="M55.1418 22.9424C54.1014 20.3165 52.1667 18.1062 49.57 16.4751C46.9891 14.862 43.4047 14.0388 39.8525 14.7405C38.0978 15.0799 36.3977 15.7333 34.9058 16.6034C33.4206 17.4701 32.0897 18.5133 30.9376 19.6326C30.3624 20.1941 29.8404 20.7798 29.3217 21.3688L27.9774 23.0827L25.9012 25.8416C23.2543 29.3913 20.4039 33.5513 15.7263 34.7839C11.1342 35.994 9.14255 34.9223 6.33984 34.4796C6.85232 35.8026 7.48709 37.0875 8.34765 38.2178C9.19219 39.3711 10.1897 40.4541 11.4299 41.3828C12.0567 41.8287 12.7184 42.2688 13.4533 42.6422C14.1849 43.0027 14.9738 43.3202 15.8159 43.5588C17.4909 44.018 19.3767 44.179 21.2026 43.9318C23.0293 43.6881 24.7753 43.1094 26.3015 42.3406C27.839 41.5788 29.1783 40.6512 30.3742 39.6725C32.7515 37.6983 34.6006 35.5169 36.1626 33.312C36.9483 32.2096 37.6614 31.0863 38.321 29.9628L39.0973 28.6252C39.3346 28.2342 39.5747 27.8408 39.8183 27.4744C40.8021 26.0024 41.7642 24.8221 42.9328 23.9361C44.085 23.0273 45.6898 22.3558 47.834 22.1998C49.9693 22.0419 52.4345 22.3335 55.1418 22.9424Z" fill="#FAFAFA"/>
<path fill-rule="evenodd" clip-rule="evenodd" d="M43.5898 44.7597C43.5898 46.6885 45.1543 48.2526 47.0827 48.2526C49.0115 48.2526 50.5736 46.6885 50.5736 44.7597C50.5736 42.8313 49.0115 41.2668 47.0827 41.2668C45.1543 41.2668 43.5898 42.8313 43.5898 44.7597Z" fill="#EC796B"/>
</svg>
